<mxfile host="app.diagrams.net" modified="2024-01-10T19:29:22.547Z" agent="Mozilla/5.0 (Macintosh; Intel Mac OS X 10_15_7) AppleWebKit/605.1.15 (KHTML, like Gecko) Version/17.2.1 Safari/605.1.15" etag="8D5yXuPW26sG9_V5E0UV" version="22.1.18" type="device">
  <diagram name="Página-1" id="ArsEkwuGPQtcpOPG1bf9">
    <mxGraphModel dx="1040" dy="739" grid="1" gridSize="10" guides="1" tooltips="1" connect="1" arrows="1" fold="1" page="1" pageScale="1" pageWidth="850" pageHeight="1100" math="0" shadow="0">
      <root>
        <mxCell id="0" />
        <mxCell id="1" parent="0" />
        <mxCell id="bBKTdJ-3Wv-lQ62cRmP5-20" value="" style="edgeStyle=orthogonalEdgeStyle;rounded=0;orthogonalLoop=1;jettySize=auto;exitX=1;exitY=0.5;exitDx=0;exitDy=0;fontFamily=Helvetica;fontStyle=0;fontSize=15;labelPosition=center;verticalLabelPosition=middle;align=center;verticalAlign=middle;fontColor=default;labelBackgroundColor=none;labelBorderColor=none;html=1;spacingTop=1;spacing=6;spacingLeft=-1;spacingBottom=0;spacingRight=0;" edge="1" parent="1" source="bBKTdJ-3Wv-lQ62cRmP5-41" target="bBKTdJ-3Wv-lQ62cRmP5-25">
          <mxGeometry relative="1" as="geometry">
            <mxPoint x="450" y="284" as="sourcePoint" />
          </mxGeometry>
        </mxCell>
        <mxCell id="bBKTdJ-3Wv-lQ62cRmP5-24" value="" style="edgeStyle=orthogonalEdgeStyle;rounded=0;orthogonalLoop=1;jettySize=auto;fontFamily=Helvetica;fontStyle=0;fontSize=15;labelPosition=center;verticalLabelPosition=middle;align=center;verticalAlign=middle;fontColor=default;labelBackgroundColor=none;labelBorderColor=none;html=1;spacingTop=1;spacing=6;spacingLeft=-1;spacingBottom=0;spacingRight=0;" edge="1" parent="1" source="bBKTdJ-3Wv-lQ62cRmP5-25" target="bBKTdJ-3Wv-lQ62cRmP5-26">
          <mxGeometry relative="1" as="geometry" />
        </mxCell>
        <mxCell id="bBKTdJ-3Wv-lQ62cRmP5-46" style="edgeStyle=orthogonalEdgeStyle;rounded=0;orthogonalLoop=1;jettySize=auto;html=1;curved=1;" edge="1" parent="1" source="bBKTdJ-3Wv-lQ62cRmP5-25" target="bBKTdJ-3Wv-lQ62cRmP5-32">
          <mxGeometry relative="1" as="geometry" />
        </mxCell>
        <mxCell id="bBKTdJ-3Wv-lQ62cRmP5-25" value="get Quantities per category" style="fontSize=15;zwfType=basicShape;rounded=0;strokeWidth=2;strokeColor=#474D66;fontFamily=Helvetica;fontStyle=0;labelPosition=center;verticalLabelPosition=middle;align=center;verticalAlign=middle;fontColor=default;labelBackgroundColor=none;labelBorderColor=none;whiteSpace=wrap;html=1;spacingTop=1;spacing=6;spacingLeft=-1;spacingBottom=0;spacingRight=0;" vertex="1" parent="1">
          <mxGeometry x="425" y="340" width="160" height="72" as="geometry" />
        </mxCell>
        <mxCell id="bBKTdJ-3Wv-lQ62cRmP5-47" style="edgeStyle=orthogonalEdgeStyle;rounded=0;orthogonalLoop=1;jettySize=auto;html=1;entryX=0;entryY=0.5;entryDx=0;entryDy=0;curved=1;" edge="1" parent="1" source="bBKTdJ-3Wv-lQ62cRmP5-26" target="bBKTdJ-3Wv-lQ62cRmP5-33">
          <mxGeometry relative="1" as="geometry" />
        </mxCell>
        <mxCell id="bBKTdJ-3Wv-lQ62cRmP5-53" value="" style="edgeStyle=orthogonalEdgeStyle;rounded=0;orthogonalLoop=1;jettySize=auto;html=1;" edge="1" parent="1" source="bBKTdJ-3Wv-lQ62cRmP5-26" target="bBKTdJ-3Wv-lQ62cRmP5-52">
          <mxGeometry relative="1" as="geometry" />
        </mxCell>
        <mxCell id="bBKTdJ-3Wv-lQ62cRmP5-26" value="add computed Quantities to object" style="fontSize=15;zwfType=basicShape;rounded=0;strokeWidth=2;strokeColor=#474D66;fontFamily=Helvetica;fontStyle=0;labelPosition=center;verticalLabelPosition=middle;align=center;verticalAlign=middle;fontColor=default;labelBackgroundColor=none;labelBorderColor=none;whiteSpace=wrap;html=1;spacingTop=1;spacing=6;spacingLeft=-1;spacingBottom=0;spacingRight=0;" vertex="1" parent="1">
          <mxGeometry x="425" y="470" width="160" height="72" as="geometry" />
        </mxCell>
        <mxCell id="bBKTdJ-3Wv-lQ62cRmP5-45" style="edgeStyle=orthogonalEdgeStyle;rounded=0;orthogonalLoop=1;jettySize=auto;html=1;entryX=1;entryY=0.25;entryDx=0;entryDy=0;curved=1;" edge="1" parent="1" source="bBKTdJ-3Wv-lQ62cRmP5-31" target="bBKTdJ-3Wv-lQ62cRmP5-41">
          <mxGeometry relative="1" as="geometry">
            <Array as="points">
              <mxPoint x="480" y="180" />
              <mxPoint x="480" y="236" />
            </Array>
          </mxGeometry>
        </mxCell>
        <mxCell id="bBKTdJ-3Wv-lQ62cRmP5-31" value="1. Crea el objeto Quantitites para la fecha recibida.&lt;br style=&quot;font-size: 15px;&quot;&gt;&amp;nbsp;2. Se anade al objeto localQuantitites&lt;br style=&quot;font-size: 15px;&quot;&gt;&amp;nbsp;" style="rounded=0;fontFamily=Helvetica;fontStyle=0;fontSize=15;labelPosition=center;verticalLabelPosition=middle;align=center;verticalAlign=middle;labelBackgroundColor=none;labelBorderColor=none;whiteSpace=wrap;html=1;spacingTop=1;spacing=6;spacingLeft=-1;spacingBottom=0;spacingRight=0;fillColor=#dae8fc;strokeColor=#6c8ebf;" vertex="1" parent="1">
          <mxGeometry x="540" y="130" width="200" height="140" as="geometry" />
        </mxCell>
        <mxCell id="bBKTdJ-3Wv-lQ62cRmP5-32" value="1. Se proceso la información de cada categoría para retornarla modelada y agrupada.&lt;br style=&quot;font-size: 15px;&quot;&gt;&amp;nbsp;" style="rounded=0;fontFamily=Helvetica;fontStyle=0;fontSize=15;labelPosition=center;verticalLabelPosition=middle;align=center;verticalAlign=middle;labelBackgroundColor=none;labelBorderColor=none;whiteSpace=wrap;html=1;spacingTop=1;spacing=6;spacingLeft=-1;spacingBottom=0;spacingRight=0;fillColor=#dae8fc;strokeColor=#6c8ebf;" vertex="1" parent="1">
          <mxGeometry x="630" y="318" width="200" height="140" as="geometry" />
        </mxCell>
        <mxCell id="bBKTdJ-3Wv-lQ62cRmP5-33" value="Función que al objeto Quantitites, en la fecha y categoría seleccionada, ingresa la data procesada anteriormente." style="rounded=0;fontFamily=Helvetica;fontStyle=0;fontSize=15;labelPosition=center;verticalLabelPosition=middle;align=center;verticalAlign=middle;labelBackgroundColor=none;labelBorderColor=none;whiteSpace=wrap;html=1;spacingTop=1;spacing=6;spacingLeft=-1;spacingBottom=0;spacingRight=0;fillColor=#dae8fc;strokeColor=#6c8ebf;" vertex="1" parent="1">
          <mxGeometry x="630" y="490" width="200" height="140" as="geometry" />
        </mxCell>
        <mxCell id="bBKTdJ-3Wv-lQ62cRmP5-36" value="" style="edgeStyle=orthogonalEdgeStyle;rounded=0;orthogonalLoop=1;jettySize=auto;fontFamily=Helvetica;fontStyle=0;fontSize=15;labelPosition=center;verticalLabelPosition=middle;align=center;verticalAlign=middle;fontColor=default;labelBackgroundColor=none;labelBorderColor=none;html=1;spacingTop=1;spacing=6;spacingLeft=-1;spacingBottom=0;spacingRight=0;" edge="1" parent="1" source="bBKTdJ-3Wv-lQ62cRmP5-34" target="bBKTdJ-3Wv-lQ62cRmP5-37">
          <mxGeometry relative="1" as="geometry">
            <mxPoint x="110" y="238" as="targetPoint" />
          </mxGeometry>
        </mxCell>
        <mxCell id="bBKTdJ-3Wv-lQ62cRmP5-34" value="Page loaded" style="strokeWidth=2;shape=mxgraph.flowchart.start_2;fillColor=#d5e8d4;strokeColor=#82b366;fontFamily=Helvetica;fontStyle=0;fontSize=15;labelPosition=center;verticalLabelPosition=middle;align=center;verticalAlign=middle;fontColor=default;labelBackgroundColor=none;labelBorderColor=none;whiteSpace=wrap;html=1;spacingTop=1;spacing=6;spacingLeft=-1;spacingBottom=0;spacingRight=0;" vertex="1" parent="1">
          <mxGeometry x="60" y="70" width="100" height="100" as="geometry" />
        </mxCell>
        <mxCell id="bBKTdJ-3Wv-lQ62cRmP5-37" value="create loaclQuantites object" style="rounded=1;absoluteArcSize=1;arcSize=14;strokeWidth=2;fontFamily=Helvetica;fontStyle=0;fontSize=15;labelPosition=center;verticalLabelPosition=middle;align=center;verticalAlign=middle;fontColor=default;labelBackgroundColor=none;labelBorderColor=none;whiteSpace=wrap;html=1;spacingTop=1;spacing=6;spacingLeft=-1;spacingBottom=0;spacingRight=0;" vertex="1" parent="1">
          <mxGeometry x="60" y="208" width="100" height="100" as="geometry" />
        </mxCell>
        <mxCell id="bBKTdJ-3Wv-lQ62cRmP5-42" value="" style="edgeStyle=orthogonalEdgeStyle;rounded=0;orthogonalLoop=1;jettySize=auto;entryX=0.5;entryY=0;entryDx=0;entryDy=0;fontFamily=Helvetica;fontStyle=0;fontSize=15;labelPosition=center;verticalLabelPosition=middle;align=center;verticalAlign=middle;fontColor=default;labelBackgroundColor=none;labelBorderColor=none;html=1;spacingTop=1;spacing=6;spacingLeft=-1;spacingBottom=0;spacingRight=0;" edge="1" parent="1" source="bBKTdJ-3Wv-lQ62cRmP5-38" target="bBKTdJ-3Wv-lQ62cRmP5-41">
          <mxGeometry relative="1" as="geometry" />
        </mxCell>
        <mxCell id="bBKTdJ-3Wv-lQ62cRmP5-38" value="addDate()" style="strokeWidth=2;shape=mxgraph.flowchart.start_2;fillColor=#d5e8d4;strokeColor=#82b366;fontFamily=Helvetica;fontStyle=0;fontSize=15;labelPosition=center;verticalLabelPosition=middle;align=center;verticalAlign=middle;fontColor=default;labelBackgroundColor=none;labelBorderColor=none;whiteSpace=wrap;html=1;spacingTop=1;spacing=6;spacingLeft=-1;spacingBottom=0;spacingRight=0;" vertex="1" parent="1">
          <mxGeometry x="247" y="70" width="100" height="100" as="geometry" />
        </mxCell>
        <mxCell id="bBKTdJ-3Wv-lQ62cRmP5-57" value="" style="edgeStyle=orthogonalEdgeStyle;rounded=0;orthogonalLoop=1;jettySize=auto;html=1;" edge="1" parent="1" source="bBKTdJ-3Wv-lQ62cRmP5-41" target="bBKTdJ-3Wv-lQ62cRmP5-56">
          <mxGeometry relative="1" as="geometry" />
        </mxCell>
        <mxCell id="bBKTdJ-3Wv-lQ62cRmP5-41" value="Set Initial Quantities" style="rounded=1;absoluteArcSize=1;arcSize=14;strokeWidth=2;fontFamily=Helvetica;fontStyle=0;fontSize=15;labelPosition=center;verticalLabelPosition=middle;align=center;verticalAlign=middle;fontColor=default;labelBackgroundColor=none;labelBorderColor=none;whiteSpace=wrap;html=1;spacingTop=1;spacing=6;spacingLeft=-1;spacingBottom=0;spacingRight=0;" vertex="1" parent="1">
          <mxGeometry x="232" y="208" width="130" height="110" as="geometry" />
        </mxCell>
        <mxCell id="bBKTdJ-3Wv-lQ62cRmP5-54" style="edgeStyle=orthogonalEdgeStyle;rounded=0;orthogonalLoop=1;jettySize=auto;html=1;" edge="1" parent="1" source="bBKTdJ-3Wv-lQ62cRmP5-52" target="bBKTdJ-3Wv-lQ62cRmP5-55">
          <mxGeometry relative="1" as="geometry">
            <mxPoint x="720" y="710" as="targetPoint" />
          </mxGeometry>
        </mxCell>
        <mxCell id="bBKTdJ-3Wv-lQ62cRmP5-52" value="updateHolds()" style="whiteSpace=wrap;html=1;fontSize=15;strokeColor=#474D66;rounded=0;strokeWidth=2;fontStyle=0;labelBackgroundColor=none;labelBorderColor=none;spacingTop=1;spacing=6;spacingLeft=-1;spacingBottom=0;spacingRight=0;" vertex="1" parent="1">
          <mxGeometry x="418.75" y="640" width="172.5" height="60" as="geometry" />
        </mxCell>
        <mxCell id="bBKTdJ-3Wv-lQ62cRmP5-55" value="&lt;font style=&quot;font-size: 14px;&quot;&gt;Se llama misteriosamente la actualización de las bodegas en esta sección&lt;/font&gt;" style="rounded=0;whiteSpace=wrap;html=1;fillColor=#dae8fc;strokeColor=#6c8ebf;" vertex="1" parent="1">
          <mxGeometry x="660" y="680" width="160" height="150" as="geometry" />
        </mxCell>
        <mxCell id="bBKTdJ-3Wv-lQ62cRmP5-60" value="" style="edgeStyle=orthogonalEdgeStyle;rounded=0;orthogonalLoop=1;jettySize=auto;html=1;" edge="1" parent="1" source="bBKTdJ-3Wv-lQ62cRmP5-56" target="bBKTdJ-3Wv-lQ62cRmP5-59">
          <mxGeometry relative="1" as="geometry" />
        </mxCell>
        <mxCell id="bBKTdJ-3Wv-lQ62cRmP5-56" value="QuantitiesProcess()" style="whiteSpace=wrap;html=1;fontSize=15;rounded=1;arcSize=14;strokeWidth=2;fontStyle=0;labelBackgroundColor=none;labelBorderColor=none;spacingTop=1;spacing=6;spacingLeft=-1;spacingBottom=0;spacingRight=0;" vertex="1" parent="1">
          <mxGeometry x="210.5" y="423" width="173" height="67" as="geometry" />
        </mxCell>
        <mxCell id="bBKTdJ-3Wv-lQ62cRmP5-62" value="" style="edgeStyle=orthogonalEdgeStyle;rounded=0;orthogonalLoop=1;jettySize=auto;html=1;" edge="1" parent="1" source="bBKTdJ-3Wv-lQ62cRmP5-59" target="bBKTdJ-3Wv-lQ62cRmP5-61">
          <mxGeometry relative="1" as="geometry" />
        </mxCell>
        <mxCell id="bBKTdJ-3Wv-lQ62cRmP5-59" value="qttSetData()" style="whiteSpace=wrap;html=1;fontSize=15;rounded=1;arcSize=14;strokeWidth=2;fontStyle=0;labelBackgroundColor=none;labelBorderColor=none;spacingTop=1;spacing=6;spacingLeft=-1;spacingBottom=0;spacingRight=0;" vertex="1" parent="1">
          <mxGeometry x="208.75" y="563.5" width="176.5" height="66.5" as="geometry" />
        </mxCell>
        <mxCell id="bBKTdJ-3Wv-lQ62cRmP5-61" value="autoSave()" style="whiteSpace=wrap;html=1;fontSize=15;rounded=1;arcSize=14;strokeWidth=2;fontStyle=0;labelBackgroundColor=none;labelBorderColor=none;spacingTop=1;spacing=6;spacingLeft=-1;spacingBottom=0;spacingRight=0;" vertex="1" parent="1">
          <mxGeometry x="237" y="713.25" width="120" height="60" as="geometry" />
        </mxCell>
      </root>
    </mxGraphModel>
  </diagram>
</mxfile>
